<svg width="110" height="110" viewBox="0 0 110 110" fill="none" xmlns="http://www.w3.org/2000/svg">
<circle cx="55" cy="55" r="55" fill="#DDF3F0"/>
<circle cx="55" cy="56" r="35" fill="#40C5AA"/>
<path d="M69.5877 42.3291C69.3727 42.1104 69.1013 42 68.832 42C68.5628 42 68.2914 42.0552 68.0764 42.2739L48.2128 61.1063L40.8172 53.4202C40.4393 53.0359 39.7922 53.0359 39.4144 53.4202L36.2834 56.4945C35.9055 56.8788 35.9055 57.537 36.2834 57.9213L47.457 69.6709C47.672 69.8896 47.9434 70 48.2127 70C48.4819 70 48.7533 69.8896 48.8597 69.7261L72.7166 47.0504C73.0945 46.6661 73.0945 46.0079 72.7166 45.6236L69.5877 42.3291Z" fill="white"/>
</svg>