<svg width="22" height="14" viewBox="0 0 22 14" fill="none" xmlns="http://www.w3.org/2000/svg">
<path d="M13.8735 1.61157H7.98403V12.2214H13.8735V1.61157Z" fill="#FF5F00"/>
<path d="M8.35801 6.91646C8.35708 5.89466 8.58805 4.88604 9.03344 3.96696C9.47883 3.04787 10.127 2.24242 10.9288 1.61157C9.93584 0.829162 8.74336 0.342596 7.48763 0.207482C6.2319 0.0723684 4.96359 0.294153 3.82765 0.847497C2.69171 1.40084 1.73399 2.26342 1.06394 3.33662C0.393898 4.40983 0.0385742 5.65037 0.0385742 6.91646C0.0385742 8.18254 0.393898 9.42308 1.06394 10.4963C1.73399 11.5695 2.69171 12.4321 3.82765 12.9854C4.96359 13.5388 6.2319 13.7605 7.48763 13.6254C8.74336 13.4903 9.93584 13.0038 10.9288 12.2213C10.127 11.5905 9.47884 10.785 9.03345 9.86595C8.58806 8.94687 8.35709 7.93826 8.35801 6.91646Z" fill="#EB001B"/>
<path d="M21.8186 6.91646C21.8187 8.18252 21.4634 9.42306 20.7934 10.4963C20.1234 11.5695 19.1657 12.4321 18.0298 12.9854C16.8938 13.5388 15.6255 13.7605 14.3698 13.6254C13.1141 13.4903 11.9217 13.0038 10.9288 12.2213C11.7299 11.5899 12.3775 10.7843 12.8228 9.86534C13.2681 8.9464 13.4995 7.93809 13.4995 6.91646C13.4995 5.89482 13.2681 4.88652 12.8228 3.96758C12.3775 3.04864 11.7299 2.24306 10.9288 1.61157C11.9217 0.82916 13.1141 0.342593 14.3698 0.20748C15.6255 0.0723683 16.8938 0.294163 18.0298 0.847513C19.1657 1.40086 20.1234 2.26344 20.7934 3.33665C21.4634 4.40986 21.8187 5.65039 21.8186 6.91646Z" fill="#F79E1B"/>
<path d="M21.1765 11.0976V10.8804H21.2638V10.8361H21.0413V10.8804H21.1287V11.0976H21.1765ZM21.6085 11.0976V10.8357H21.5403L21.4618 11.0159L21.3833 10.8357H21.3151V11.0976H21.3633V10.9001L21.4368 11.0704H21.4868L21.5603 10.8996V11.0976H21.6085Z" fill="#F79E1B"/>
</svg>