<svg width="29" height="10" viewBox="0 0 29 10" fill="none" xmlns="http://www.w3.org/2000/svg">
<path d="M14.7552 0.67363L12.8895 9.55081H10.6334L12.4994 0.67363H14.7552ZM24.2473 6.40566L25.4351 3.07197L26.1186 6.40566H24.2473ZM26.7645 9.55081H28.8513L27.0303 0.67363H25.1041C24.6713 0.67363 24.3061 0.929873 24.1435 1.32491L20.7588 9.55081H23.128L23.5983 8.2252H26.4929L26.7645 9.55081ZM20.8763 6.65235C20.886 4.30935 17.6931 4.18039 17.7152 3.13379C17.7218 2.81489 18.0202 2.4766 18.6719 2.38978C18.9957 2.34679 19.8859 2.31392 20.8968 2.78735L21.2926 0.904867C20.7496 0.704256 20.051 0.51123 19.182 0.51123C16.9522 0.51123 15.3827 1.71799 15.3694 3.44594C15.3553 4.72378 16.4898 5.43688 17.3447 5.8617C18.2236 6.29692 18.519 6.57564 18.5151 6.96478C18.5093 7.56071 17.814 7.82314 17.1653 7.83353C16.0308 7.8518 15.3724 7.52194 14.8477 7.273L14.4389 9.21814C14.9658 9.46455 15.9389 9.67865 16.9483 9.68961C19.3181 9.68961 20.8686 8.49774 20.8763 6.65235ZM11.5314 0.67363L7.8761 9.55081H5.49086L3.6922 2.46621C3.58289 2.02986 3.48794 1.87027 3.15586 1.68624C2.614 1.38701 1.71826 1.10576 0.930176 0.931559L0.984003 0.67363H4.82285C5.31199 0.67363 5.75227 1.00517 5.86323 1.57863L6.81335 6.71584L9.16105 0.67363H11.5314Z" fill="#1434CB"/>
</svg>
